<svg width="420" height="120" viewBox="0 0 420 120" fill="none" xmlns="http://www.w3.org/2000/svg">
  <rect x="1" y="1" width="78" height="78" rx="18" fill="#0D3B34"/>
  <rect x="1" y="1" width="78" height="78" rx="18" stroke="#B4833A" stroke-width="2"/>
  <path d="M20 58V22H30.2L40.4 40.9L50.5 22H60.7V58H52.3V35.6L43.7 51.4H37L28.4 35.6V58H20Z" fill="#F9F2E8"/>
  <path d="M67 68C63.1 73.9 56.7 77.9 48.8 77.9C36.6 77.9 27.1 68.5 27.1 56.6C27.1 44.6 36.6 35.2 48.8 35.2C56.7 35.2 63.1 39.3 67 45.1" stroke="#B4833A" stroke-width="2.4" stroke-linecap="round"/>
  <text x="98" y="40" fill="#0D3B34" font-family="Georgia, 'Times New Roman', serif" font-size="28" font-weight="700">Marino Castro</text>
  <text x="98" y="66" fill="#615F59" font-family="Arial, Helvetica, sans-serif" font-size="15" letter-spacing="1.6">REALTOR  •  REAL ESTATE INVESTOR  •  NEW JERSEY</text>
  <line x1="98" y1="82" x2="408" y2="82" stroke="#D9C9A9" stroke-width="2"/>
</svg>
